<?xml version="1.0" encoding="UTF-8" standalone="no"?>
<svg id="svg3336" xmlns:rdf="http://www.w3.org/1999/02/22-rdf-syntax-ns#" xmlns="http://www.w3.org/2000/svg" height="44mm" width="44mm" version="1.1" xmlns:cc="http://creativecommons.org/ns#" xmlns:dc="http://purl.org/dc/elements/1.1/" viewBox="0 0 155.90551 155.9055">
 <defs id="defs3338">
  <clipPath id="clipPath4233" clipPathUnits="userSpaceOnUse">
   <rect id="rect3341" style="color:#000000" height="140" width="110" y="409.66" x="184.48" fill="#2368dc"/>
  </clipPath>
 </defs>
 <rect id="rect3347" style="color:#000000" height="140" width="110" y="12.161" x="22.951" fill="#dc5241"/>
 <text id="text3349" style="word-spacing:0px;letter-spacing:0px;text-anchor:middle;text-align:center" xml:space="preserve" font-size="25px" y="122.62264" x="78.049065" font-family="Cabin" line-height="125%" fill="#ffffff"><tspan id="tspan3351" y="122.62264" x="78.049065">gmap</tspan></text>
 <g id="g3372" stroke="#5586da" fill="none">
  <path id="path3353" d="m273.21 407.36 22.706 23.015" clip-path="url(#clipPath4233)" transform="translate(-161.53 -397.5)" stroke-width="1.5"/>
  <path id="path3355" d="m41.121 12.111v-2.6446c-0.0369-2.9794 2.0107-4.7122 4.731-4.714l8.6104-0.006c2.17-0.001 4.9504 1.7128 4.9566 4.8492 0.006 2.8589-0.0455 23.208-0.1916 36.466-0.0338 3.0675-1.7918 4.59-4.4041 4.59h-5.6332c-2.267 0-4.5484-1.8717-4.59-4.3814-0.045-2.7119 0.20863-29.209 0.20863-29.209" stroke-width="2"/>
 </g>
</svg>
